<?xml version="1.0" encoding="UTF-8"?>
<svg xmlns="http://www.w3.org/2000/svg" version="1.1" viewBox="0 0 1080 1080">
  <!-- Generator: Adobe Illustrator 30.2.1, SVG Export Plug-In . SVG Version: 2.1.1 Build 1)  -->
  <defs>
    <style>
      .st0 {
        fill: #fff;
      }
    </style>
  </defs>
  <g id="_черный" data-name="черный">
    <g>
      <path d="M220.2,520.8c-4.9-7.2-13-11.5-21.7-11.5s-16.3,3.9-21.3,10.8l-47,69.1h22.3l39.5-58.1c2.1-3.1,5.3-3.4,6.5-3.4s4.4.3,6.5,3.4l14.3,20.6h-27.8l-10.7,18.6h51.2l12.5,18.9h22.3l-46.5-68.4h0Z"/>
      <polygon points="552.8 529.6 600.7 529.6 600.7 589.2 621 589.2 621 529.6 668.9 529.6 681.7 510.5 540.1 510.5 552.8 529.6"/>
      <polygon points="905 510.7 866.4 540 845.1 540 845.1 510.5 826.6 510.5 826.6 589.5 845.1 589.5 845.1 558.5 864.7 558.5 905 589.2 937.2 589.2 886.4 549.9 937.2 510.5 905 510.7"/>
      <polygon points="299.8 566.1 299.8 510.5 281.1 510.5 281.1 589.2 301.1 589.2 371.6 530.9 371.6 589.2 390.3 589.2 390.3 589 390.3 510.7 367.8 510.5 299.8 566.1"/>
      <polygon points="712.8 566.1 712.8 510.5 694.1 510.5 694.1 589.2 714.2 589.2 784.6 530.9 784.6 589.2 803.3 589.2 803.3 589 803.3 510.7 780.8 510.5 712.8 566.1"/>
      <path d="M44.2,550.7v-1.9c0-10.6,8.5-19.2,19.1-19.2h59.8l13.2-19.2H62.7c-12.1,0-21.4,3.5-27.8,10.4-6.4,6.9-9.6,16.6-9.6,28.9s3.2,21.9,9.6,28.8c6.4,6.9,15.7,10.4,27.8,10.4h51.8l13.1-19.1H63.2c-10.5,0-19.1-8.6-19.1-19.2Z"/>
      <path d="M981.8,569.9c-10.5,0-19.1-8.6-19.1-19.2v-1.9c0-10.6,8.5-19.2,19.1-19.2h59.8l13.2-19.2h-73.5c-12.1,0-21.4,3.5-27.8,10.4-6.4,6.9-9.6,16.6-9.6,28.9s3.2,21.9,9.6,28.8c6.4,6.9,15.7,10.4,27.8,10.4h51.8l13.1-19.1h-64.4Z"/>
      <polygon points="355.1 490.5 316.3 490.5 316.3 510.5 330.2 510.5 355.1 490.5"/>
      <path d="M510.7,510.5h-70.7c-7.5,0-13.9,2.9-19.2,8.6-5.4,5.7-8,12.6-8,20.7v20.1c0,8,2.7,14.9,8,20.7,5.4,5.8,11.8,8.6,19.2,8.6h70.7c7.5,0,14-2.9,19.3-8.6,5.3-5.8,8-12.6,8-20.7v-20.1c0-8.1-2.7-15-8-20.7-5.3-5.7-11.8-8.6-19.3-8.6ZM518.9,555.8c0,7.9-6.5,14.4-14.4,14.4h-58.2c-8,0-14.4-6.4-14.4-14.4v-11.8c0-7.9,6.5-14.4,14.4-14.4h58.2c8,0,14.4,6.4,14.4,14.4v11.8Z"/>
    </g>
  </g>
  <g id="_белый" data-name="белый">
    <rect x="1140" width="1080" height="1080"/>
    <g>
      <path class="st0" d="M1360.2,520.8c-4.9-7.2-13-11.5-21.7-11.5s-16.3,3.9-21.3,10.8l-47,69.1h22.3l39.5-58.1c2.1-3.1,5.3-3.4,6.5-3.4s4.4.3,6.5,3.4l14.3,20.6h-27.8l-10.7,18.6h51.2l12.5,18.9h22.3l-46.5-68.4h0Z"/>
      <polygon class="st0" points="1692.8 529.6 1740.7 529.6 1740.7 589.2 1761 589.2 1761 529.6 1808.9 529.6 1821.7 510.5 1680.1 510.5 1692.8 529.6"/>
      <polygon class="st0" points="2045 510.7 2006.4 540 1985.1 540 1985.1 510.5 1966.6 510.5 1966.6 589.5 1985.1 589.5 1985.1 558.5 2004.7 558.5 2045 589.2 2077.2 589.2 2026.4 549.9 2077.2 510.5 2045 510.7"/>
      <polygon class="st0" points="1439.8 566.1 1439.8 510.5 1421.1 510.5 1421.1 589.2 1441.1 589.2 1511.6 530.9 1511.6 589.2 1530.3 589.2 1530.3 589 1530.3 510.7 1507.8 510.5 1439.8 566.1"/>
      <polygon class="st0" points="1852.8 566.1 1852.8 510.5 1834.1 510.5 1834.1 589.2 1854.2 589.2 1924.6 530.9 1924.6 589.2 1943.3 589.2 1943.3 589 1943.3 510.7 1920.8 510.5 1852.8 566.1"/>
      <path class="st0" d="M1184.2,550.7v-1.9c0-10.6,8.5-19.2,19.1-19.2h59.8l13.2-19.2h-73.5c-12.1,0-21.4,3.5-27.8,10.4-6.4,6.9-9.6,16.6-9.6,28.9s3.2,21.9,9.6,28.8c6.4,6.9,15.7,10.4,27.8,10.4h51.8l13.1-19.1h-64.4c-10.5,0-19.1-8.6-19.1-19.2Z"/>
      <path class="st0" d="M2121.8,569.9c-10.5,0-19.1-8.6-19.1-19.2v-1.9c0-10.6,8.5-19.2,19.1-19.2h59.8l13.2-19.2h-73.5c-12.1,0-21.4,3.5-27.8,10.4-6.4,6.9-9.6,16.6-9.6,28.9s3.2,21.9,9.6,28.8c6.4,6.9,15.7,10.4,27.8,10.4h51.8l13.1-19.1h-64.4Z"/>
      <polygon class="st0" points="1495.1 490.5 1456.3 490.5 1456.3 510.5 1470.2 510.5 1495.1 490.5"/>
      <path class="st0" d="M1650.7,510.5h-70.7c-7.5,0-13.9,2.9-19.2,8.6-5.4,5.7-8,12.6-8,20.7v20.1c0,8,2.7,14.9,8,20.7,5.4,5.8,11.8,8.6,19.2,8.6h70.7c7.5,0,14-2.9,19.3-8.6,5.3-5.8,8-12.6,8-20.7v-20.1c0-8.1-2.7-15-8-20.7-5.3-5.7-11.8-8.6-19.3-8.6ZM1658.9,555.8c0,7.9-6.5,14.4-14.4,14.4h-58.2c-8,0-14.4-6.4-14.4-14.4v-11.8c0-7.9,6.5-14.4,14.4-14.4h58.2c8,0,14.4,6.4,14.4,14.4v11.8Z"/>
    </g>
  </g>
</svg>